# This file uses centimeters as units for non-parametric coordinates.

mtllib Floor_Curve_LP.mtl
g default
v 0.757590 0.000000 0.000000
v 0.756936 0.000000 -0.009269
v 0.742986 0.000000 -0.215835
v 0.743370 0.000000 -0.237004
v 0.747739 0.000000 -0.441384
v 0.750009 0.000000 -0.462130
v 0.772595 0.000000 -0.662351
v 0.776732 0.000000 -0.682479
v 0.817316 0.000000 -0.876659
v 0.823408 0.000000 -0.895861
v 0.882975 0.000000 -1.080912
v 0.891561 0.000000 -1.098444
v 0.975188 0.000000 -1.267220
v 0.986256 0.000000 -1.282849
v 1.093921 0.000000 -1.433086
v 1.107391 0.000000 -1.446671
v 1.237889 0.000000 -1.577390
v 1.253466 0.000000 -1.588928
v 1.404655 0.000000 -1.699784
v 1.422243 0.000000 -1.709098
v 1.591804 0.000000 -1.799888
v 1.611337 0.000000 -1.806896
v 1.801484 0.000000 -1.874178
v 1.822347 0.000000 -1.879384
v 2.026286 0.000000 -1.929028
v 2.048350 0.000000 -1.932465
v 2.263671 0.000000 -1.965053
v 2.286450 0.000000 -1.967037
v 2.507833 0.000000 -1.985745
v 2.530539 0.000000 -1.986807
v 2.750105 0.000000 -1.996803
v 2.772256 0.000000 -1.997136
v 2.985224 0.000000 -2.000285
v 2.997957 0.000000 0.000000
v 2.997957 0.000000 -2.000093
vt 0.253211 0.000000
vt 0.252993 0.003090
vt 0.248343 0.071945
vt 0.248471 0.079001
vt 0.249927 0.147128
vt 0.250684 0.154043
vt 0.258213 0.220784
vt 0.259592 0.227493
vt 0.273120 0.292220
vt 0.275150 0.298620
vt 0.295006 0.360304
vt 0.297868 0.366148
vt 0.325744 0.422407
vt 0.329433 0.427616
vt 0.365321 0.477695
vt 0.369812 0.482224
vt 0.413311 0.525797
vt 0.418503 0.529643
vt 0.468899 0.566594
vt 0.474762 0.569699
vt 0.531282 0.599963
vt 0.537793 0.602299
vt 0.601176 0.624726
vt 0.608130 0.626461
vt 0.676110 0.643009
vt 0.683464 0.644155
vt 0.755238 0.655018
vt 0.762831 0.655679
vt 0.836625 0.661915
vt 0.844194 0.662269
vt 0.917383 0.665601
vt 0.924766 0.665712
vt 0.995756 0.666762
vt 1.000000 0.000000
vt 1.000000 0.666299
vn 0.000000 1.000000 0.000000
vn 0.000000 1.000000 0.000000
vn 0.000000 1.000000 0.000000
vn 0.000000 1.000000 0.000000
vn 0.000000 1.000000 0.000000
vn 0.000000 1.000000 0.000000
vn 0.000000 1.000000 0.000000
vn 0.000000 1.000000 0.000000
vn 0.000000 1.000000 0.000000
vn 0.000000 1.000000 0.000000
vn 0.000000 1.000000 0.000000
vn 0.000000 1.000000 0.000000
vn 0.000000 1.000000 0.000000
vn 0.000000 1.000000 0.000000
vn 0.000000 1.000000 0.000000
vn 0.000000 1.000000 0.000000
vn 0.000000 1.000000 0.000000
vn 0.000000 1.000000 0.000000
vn 0.000000 1.000000 0.000000
vn 0.000000 1.000000 0.000000
vn 0.000000 1.000000 0.000000
vn 0.000000 1.000000 0.000000
vn 0.000000 1.000000 0.000000
vn 0.000000 1.000000 0.000000
vn 0.000000 1.000000 0.000000
vn 0.000000 1.000000 0.000000
vn 0.000000 1.000000 0.000000
vn 0.000000 1.000000 0.000000
vn 0.000000 1.000000 0.000000
vn 0.000000 1.000000 0.000000
vn 0.000000 1.000000 0.000000
vn 0.000000 1.000000 0.000000
vn 0.000000 1.000000 0.000000
vn 0.000000 1.000000 0.000000
vn 0.000000 1.000000 0.000000
s off
g Floor_Curve_LP
usemtl initialShadingGroup
f 1/1/1 34/34/2 35/35/3 33/33/4 32/32/5 31/31/6 30/30/7 29/29/8 28/28/9 27/27/10 26/26/11 25/25/12 24/24/13 23/23/14 22/22/15 21/21/16 20/20/17 19/19/18 18/18/19 17/17/20 16/16/21 15/15/22 14/14/23 13/13/24 12/12/25 11/11/26 10/10/27 9/9/28 8/8/29 7/7/30 6/6/31 5/5/32 4/4/33 3/3/34 2/2/35
