# This file uses centimeters as units for non-parametric coordinates.

mtllib Inside_Corner_LP.mtl
g default
v 0.000000 0.000000 -1.000000
v 0.000000 0.000000 -0.500000
v 0.000000 0.000000 0.000000
v 0.000000 1.006388 -1.000000
v 0.000000 1.000000 -0.500000
v 0.000000 0.749829 -0.000000
v 2.999448 0.746773 -0.000000
v 2.999448 0.000000 0.000000
v 1.999448 1.003196 -0.999448
v 2.499448 1.000000 -0.499448
v 1.999448 0.000000 -0.999448
v 2.499448 0.000000 -0.499448
v 2.000000 1.000000 -3.000000
v 2.500000 1.000000 -3.000000
v 3.000000 0.743441 -3.000000
v 2.000000 0.000000 -3.000000
v 2.500000 0.000000 -3.000000
v 3.000000 0.000000 -3.000000
vt 0.415520 0.024682
vt 0.331531 0.025105
vt 0.668570 0.023588
vt 0.584573 0.023830
vt 0.888444 0.023098
vt 0.762487 0.023316
vt 0.764431 0.527165
vt 0.889315 0.526950
vt 0.172202 0.033646
vt 0.972435 0.022953
vt 0.273482 0.036083
vt 0.269827 0.187967
vt 0.070923 0.031208
vt 0.066017 0.235062
vt 0.167328 0.236205
vt 0.585549 0.359607
vt 0.669785 0.443355
vt 0.417212 0.360455
vt 0.333645 0.444868
vt 0.973160 0.442721
vt 0.284812 0.490067
vt 0.174466 0.489530
vt 0.175540 0.268839
vt 0.285885 0.269376
vt 0.064396 0.432373
vt 0.065194 0.268302
vt 0.418059 0.528620
vt 0.334070 0.529043
vt 0.331953 0.108909
vt 0.416366 0.192476
vt 0.973306 0.526897
vt 0.889315 0.527042
vt 0.888537 0.023098
vt 0.972580 0.106758
vt 0.764431 0.527258
vt 0.762384 0.023316
vt 0.585061 0.191626
vt 0.586039 0.527774
vt 0.668813 0.107393
vt 0.670029 0.527531
vn -1.000000 0.000000 0.000000
vn -1.000000 0.000000 0.000000
vn -1.000000 0.000000 0.000000
vn -1.000000 0.000000 0.000000
vn -1.000000 0.000000 0.000000
vn -1.000000 0.000000 0.000000
vn 0.000707 0.999957 0.009230
vn 0.000574 0.962726 0.270479
vn 0.000511 0.929918 0.367767
vn 0.000707 0.999957 0.009230
vn 0.000451 0.893201 0.449658
vn 0.000451 0.893201 0.449658
vn -0.000000 0.000000 1.000000
vn -0.000000 0.000000 1.000000
vn -0.000000 0.000000 1.000000
vn -0.000000 0.000000 1.000000
vn 0.000000 -1.000000 0.000000
vn 0.000000 -1.000000 0.000000
vn 0.000000 -1.000000 0.000000
vn 0.000000 -1.000000 0.000000
vn 0.000000 -1.000000 0.000000
vn 0.000000 -1.000000 0.000000
vn 0.000276 -0.000000 -1.000000
vn 0.000276 -0.000000 -1.000000
vn 0.000276 -0.000000 -1.000000
vn 0.000276 -0.000000 -1.000000
vn 0.000000 0.000000 -1.000000
vn 0.000000 0.000000 -1.000000
vn 0.000000 0.000000 -1.000000
vn 0.000000 0.000000 -1.000000
vn 0.000000 0.000000 -1.000000
vn 0.000000 0.000000 -1.000000
vn 0.000000 -1.000000 0.000000
vn 0.000000 -1.000000 0.000000
vn 0.000000 -1.000000 0.000000
vn 0.000000 -1.000000 0.000000
vn 0.000000 -1.000000 0.000000
vn 0.000000 -1.000000 0.000000
vn 1.000000 -0.000000 0.000184
vn 1.000000 -0.000000 0.000184
vn 1.000000 -0.000000 0.000184
vn 1.000000 -0.000000 0.000184
vn -1.000000 -0.000000 -0.000276
vn -1.000000 -0.000000 -0.000276
vn -1.000000 -0.000000 -0.000276
vn -1.000000 -0.000000 -0.000276
vn 0.003551 0.999994 -0.000709
vn 0.370858 0.928689 -0.000509
vn 0.271531 0.962430 -0.000574
vn 0.003551 0.999993 -0.000709
vn 0.454353 0.890822 -0.000449
vn 0.454353 0.890822 -0.000449
s 1
g Inside_corner_LP
usemtl initialShadingGroup
f 1/13/1 2/9/2 5/15/3 4/14/4
f 2/9/2 3/11/5 6/12/6 5/15/3
s 2
f 4/4/7 5/3/8 10/17/9 9/16/10
f 5/3/8 6/6/11 7/7/12 10/17/9
s off
f 3/5/13 8/8/14 7/7/15 6/6/16
s 3
f 11/18/17 12/19/18 2/2/19 1/1/20
f 12/20/18 8/8/21 3/5/22 2/10/19
s off
f 9/16/23 11/18/24 1/1/25 4/4/26
s 4
f 13/21/27 14/22/28 17/23/29 16/24/30
f 14/22/28 15/25/31 18/26/32 17/23/29
s 5
f 16/27/33 17/28/34 12/29/35 11/30/36
f 17/31/34 18/32/37 8/33/38 12/34/35
s off
f 8/33/39 18/32/40 15/35/41 7/36/42
f 16/27/43 11/30/44 9/37/45 13/38/46
s 6
f 9/37/47 10/39/48 14/40/49 13/38/50
f 10/39/48 7/36/51 15/35/52 14/40/49
