# This file uses centimeters as units for non-parametric coordinates.

mtllib Outside_Corner_LP.mtl
g default
v -1.000000 0.000000 0.000000
v -0.500000 0.000000 0.000000
v 0.000000 0.000000 0.000000
v -1.000000 1.006388 0.000000
v -0.500000 1.000000 0.000000
v -0.000000 0.749829 0.000000
v -1.000000 1.003194 -4.000000
v -0.500000 1.000000 -3.500000
v -0.053776 0.746635 -3.000000
v -1.000000 0.000000 -4.000000
v -0.500000 0.000000 -3.500000
v 0.000000 0.000000 -3.000000
v 3.000000 1.000000 -4.000000
v 3.000000 1.000000 -3.500000
v 3.000000 0.743441 -3.000000
v 3.000000 0.000000 -4.000000
v 3.000000 0.000000 -3.500000
v 3.000000 0.000000 -3.000000
v -0.991621 1.003194 -4.000000
v -0.491621 1.000000 -3.500000
v -0.491621 0.000000 -3.500000
v -0.991621 0.000000 -4.000000
vt 0.522261 0.016715
vt 0.465448 0.017001
vt 0.693431 0.015975
vt 0.636613 0.016139
vt 0.842160 0.015644
vt 0.756959 0.015791
vt 0.758274 0.356672
vt 0.899563 0.356427
vt 0.523978 0.357593
vt 0.842749 0.356526
vt 0.467165 0.357879
vt 0.195652 0.249471
vt 0.898974 0.015546
vt 0.632246 0.416722
vt 0.279124 0.251480
vt 0.276112 0.376659
vt 0.112179 0.247463
vt 0.108137 0.415473
vt 0.694418 0.356856
vt 0.191634 0.416416
vt 0.632244 0.583257
vt 0.694407 0.642794
vt 0.695394 0.983609
vt 0.638592 0.983773
vt 0.757923 0.642610
vt 0.759238 0.983424
vt 0.293890 0.655782
vt 0.202138 0.655336
vt 0.203030 0.471831
vt 0.294783 0.472277
vt 0.110614 0.607810
vt 0.111277 0.471384
vt 0.524988 0.984345
vt 0.468186 0.984631
vt 0.466469 0.643820
vt 0.523271 0.643534
vt 0.900499 0.983180
vt 0.843696 0.983278
vt 0.843107 0.642463
vt 0.899910 0.642365
vn 0.000000 0.000000 1.000000
vn 0.000000 0.000000 1.000000
vn 0.000000 0.000000 1.000000
vn 0.000000 0.000000 1.000000
vn 0.000000 0.000000 1.000000
vn 0.000000 0.000000 1.000000
vn 0.009794 0.999952 -0.000426
vn 0.238652 0.971102 -0.002373
vn 0.122621 0.992453 -0.001388
vn 0.009794 0.999952 -0.000426
vn 0.471557 0.881825 -0.004335
vn 0.471557 0.881825 -0.004335
vn 0.000000 -1.000000 0.000000
vn 0.000000 -1.000000 0.000000
vn 0.000000 -1.000000 0.000000
vn 0.000000 -1.000000 0.000000
vn 0.000000 -1.000000 0.000000
vn 0.000000 -1.000000 0.000000
vn 0.999315 0.035911 -0.008976
vn 0.999315 0.035911 -0.008976
vn 0.999315 0.035911 -0.008976
vn 0.999315 0.035911 -0.008976
vn -1.000000 0.000000 0.000000
vn -1.000000 0.000000 0.000000
vn -1.000000 0.000000 0.000000
vn -1.000000 0.000000 0.000000
vn 0.000426 0.999996 0.002981
vn 0.000438 0.991703 0.128552
vn 0.000442 0.972545 0.232716
vn 0.000426 0.999995 0.002981
vn 0.000434 0.890941 0.454119
vn 0.000434 0.890941 0.454119
vn 1.000000 0.000000 0.000000
vn 1.000000 0.000000 0.000000
vn 1.000000 0.000000 0.000000
vn 1.000000 0.000000 0.000000
vn 1.000000 0.000000 0.000000
vn 1.000000 0.000000 0.000000
vn 0.000000 -1.000000 0.000000
vn 0.000000 -1.000000 0.000000
vn 0.000000 -1.000000 0.000000
vn 0.000000 -1.000000 0.000000
vn 0.000000 -1.000000 0.000000
vn 0.000000 -1.000000 0.000000
vn 0.000000 0.000000 1.000000
vn 0.000000 0.000000 1.000000
vn 0.000000 0.000000 1.000000
vn 0.000000 0.000000 1.000000
vn 0.000000 0.000000 -1.000000
vn 0.000000 0.000000 -1.000000
vn 0.000000 0.000000 -1.000000
vn 0.000000 0.000000 -1.000000
vn 0.000000 0.999980 0.006388
vn 0.000000 0.999980 0.006388
vn 0.000000 0.999980 0.006388
vn 0.000000 0.999980 0.006388
vn 0.000000 -1.000000 0.000000
vn 0.000000 -1.000000 0.000000
vn 0.000000 -1.000000 0.000000
vn 0.000000 -1.000000 0.000000
vn 0.000000 0.000000 -1.000000
vn 0.000000 0.000000 -1.000000
vn 0.000000 0.000000 -1.000000
vn 0.000000 0.000000 -1.000000
s 1
g Outside_Corner_LP
usemtl initialShadingGroup
f 1/17/1 2/12/2 5/20/3 4/18/4
f 2/12/2 3/15/5 6/16/6 5/20/3
s 2
f 4/4/7 5/3/8 8/19/9 7/14/10
f 5/3/8 6/6/11 9/7/12 8/19/9
s 3
f 10/9/13 11/11/14 2/2/15 1/1/16
f 11/8/14 12/10/17 3/5/18 2/13/15
s off
f 3/5/19 12/10/20 9/7/21 6/6/22
f 10/9/23 1/1/24 4/4/25 7/14/26
s 4
f 7/21/27 8/22/28 14/23/29 13/24/30
f 8/22/28 9/25/31 15/26/32 14/23/29
s 5
f 13/27/33 14/28/34 17/29/35 16/30/36
f 14/28/34 15/31/37 18/32/38 17/29/35
s 6
f 16/33/39 17/34/40 11/35/41 10/36/42
f 17/37/40 18/38/43 12/39/44 11/40/41
s off
f 12/39/45 18/38/46 15/26/47 9/25/48
f 16/33/49 10/36/50 7/21/51 13/24/52
f 7//53 8//54 20//55 19//56
f 11//57 10//58 22//59 21//60
f 10//61 7//62 19//63 22//64
