# This file uses centimeters as units for non-parametric coordinates.

mtllib Wall_HP.mtl
g default
v -0.996143 0.014395 -0.028790
v -0.985605 0.003857 -0.028790
v -0.971209 0.000000 -0.028791
v -0.971209 0.003857 -0.014395
v -0.971209 0.014395 -0.003857
v -0.971209 0.028791 0.000000
v -0.985605 0.028791 -0.003857
v -0.996143 0.028791 -0.014395
v -1.000000 0.028791 -0.028791
v -0.500000 0.028791 0.000000
v -0.500000 0.014395 -0.003857
v -0.500000 0.003857 -0.014395
v -0.500000 0.000000 -0.028791
v -0.014395 0.003857 -0.028786
v -0.003857 0.014395 -0.028786
v -0.000000 0.028791 -0.028791
v -0.003857 0.028791 -0.014395
v -0.014395 0.028791 -0.003857
v -0.028791 0.028791 0.000000
v -0.028798 0.014395 -0.003857
v -0.028798 0.003857 -0.014395
v -0.028791 0.000000 -0.028791
v -0.985485 1.002245 -0.028969
v -0.996106 0.991758 -0.028969
v -1.000000 0.977350 -0.028976
v -0.996143 0.977372 -0.014488
v -0.985604 0.977327 -0.003882
v -0.971209 0.977227 0.000000
v -0.971151 0.991608 -0.003884
v -0.971084 1.002126 -0.014493
v -0.971026 1.005956 -0.028976
v -0.493779 0.995703 -0.029738
v -0.507500 0.999036 -0.029738
v -0.521565 1.000275 -0.029727
v -0.521995 0.993987 -0.014121
v -0.516442 0.983801 -0.003124
v -0.506610 0.972794 0.000000
v -0.492824 0.978077 -0.003129
v -0.483217 0.984579 -0.014125
v -0.480713 0.990350 -0.029727
v -0.002660 0.739599 -0.029393
v -0.010283 0.751935 -0.029403
v -0.021842 0.760694 -0.029412
v -0.023771 0.757060 -0.014623
v -0.025984 0.746761 -0.003841
v -0.027879 0.732604 0.000000
v -0.014362 0.727939 -0.003834
v -0.004144 0.725278 -0.014601
v -0.000000 0.725344 -0.029382
v -0.985605 0.971201 -2.996143
v -0.996143 0.971223 -2.985605
v -1.000000 0.971271 -2.971209
v -0.996143 0.985667 -2.971215
v -0.985604 0.996205 -2.971215
v -0.971209 1.000061 -2.971209
v -0.971210 0.996177 -2.985609
v -0.971210 0.985619 -2.996145
v -0.971209 0.971209 -3.000000
v -0.516264 0.983692 -2.996925
v -0.521716 0.993808 -2.986104
v -0.521282 1.000000 -2.970744
v -0.507380 0.998884 -2.970580
v -0.493761 0.995564 -2.970423
v -0.480764 0.990130 -2.970279
v -0.483271 0.984479 -2.985842
v -0.492846 0.978028 -2.996830
v -0.506595 0.972701 -3.000000
v -0.004169 0.719202 -2.985559
v -0.014377 0.721780 -2.996222
v -0.027842 0.726433 -3.000000
v -0.025830 0.740559 -2.996223
v -0.023486 0.750848 -2.985571
v -0.021448 0.754508 -2.970934
v -0.010087 0.745749 -2.970932
v -0.002608 0.733508 -2.970925
v -0.000000 0.719402 -2.970914
v -0.985605 0.003857 -2.971209
v -0.996143 0.014395 -2.971209
v -1.000000 0.028791 -2.971209
v -0.996143 0.028791 -2.985605
v -0.985605 0.028791 -2.996143
v -0.971209 0.028791 -3.000000
v -0.971209 0.014395 -2.996143
v -0.971209 0.003857 -2.985605
v -0.971209 0.000000 -2.971209
v -0.500000 0.028791 -3.000000
v -0.500000 0.014395 -2.996143
v -0.500000 0.003857 -2.985605
v -0.500000 0.000000 -2.971209
v -0.003857 0.014395 -2.971211
v -0.014395 0.003857 -2.971211
v -0.028791 0.000000 -2.971209
v -0.028798 0.003857 -2.985605
v -0.028798 0.014395 -2.996143
v -0.028791 0.028791 -3.000000
v -0.014395 0.028791 -2.996143
v -0.003857 0.028791 -2.985605
v 0.000000 0.028791 -2.971209
v -0.993978 0.016351 -0.016350
v -0.983649 0.006022 -0.016350
v -0.983649 0.016351 -0.006022
v -0.016351 0.006022 -0.016349
v -0.006021 0.016351 -0.016349
v -0.016353 0.016351 -0.006022
v -0.983550 1.000107 -0.016459
v -0.993948 0.989849 -0.016462
v -0.983611 0.989774 -0.006068
v -0.494329 0.990715 -0.016142
v -0.509268 0.994345 -0.016144
v -0.503467 0.985735 -0.005014
v -0.005314 0.737803 -0.016613
v -0.013124 0.750433 -0.016616
v -0.014921 0.740593 -0.006014
v -0.983651 0.983671 -2.993973
v -0.993976 0.983708 -2.983644
v -0.983645 0.994034 -2.983652
v -0.503378 0.985692 -2.994995
v -0.509122 0.994267 -2.984013
v -0.494302 0.990660 -2.983922
v -0.005291 0.731640 -2.983581
v -0.014859 0.734386 -2.994078
v -0.012973 0.744207 -2.983593
v -0.983649 0.006022 -2.983649
v -0.993978 0.016351 -2.983649
v -0.983649 0.016351 -2.993978
v -0.006021 0.016351 -2.983650
v -0.016351 0.006022 -2.983650
v -0.016353 0.016351 -2.993978
vt 0.410709 0.029542
vt 0.331555 0.029941
vt 0.076614 0.037181
vt 0.893289 0.027926
vt 0.883617 0.027943
vt 0.071991 0.229295
vt 0.264264 0.184342
vt 0.766609 0.028244
vt 0.422871 0.523759
vt 0.590861 0.522923
vt 0.666440 0.522627
vt 0.673646 0.522528
vt 0.760363 0.522387
vt 0.768461 0.522365
vt 0.884471 0.522214
vt 0.973298 0.522061
vt 0.894143 0.522198
vt 0.071517 0.274687
vt 0.172062 0.039477
vt 0.267510 0.041774
vt 0.166122 0.230662
vt 0.589455 0.028683
vt 0.664962 0.028592
vt 0.672207 0.028571
vt 0.758403 0.028268
vt 0.278489 0.483682
vt 0.175951 0.483512
vt 0.070559 0.428649
vt 0.175509 0.275193
vt 0.413199 0.523808
vt 0.334045 0.524207
vt 0.972443 0.027789
vt 0.420381 0.029494
vt 0.579719 0.028722
vt 0.581188 0.522962
vt 0.279501 0.275698
vt 0.417159 0.029482
vt 0.413936 0.029499
vt 0.172202 0.033646
vt 0.412036 0.024834
vt 0.128464 0.035267
vt 0.126461 0.035363
vt 0.418898 0.024811
vt 0.172202 0.033646
vt 0.172138 0.036561
vt 0.972435 0.022953
vt 0.172202 0.033646
vt 0.331531 0.025105
vt 0.890073 0.027904
vt 0.886855 0.027909
vt 0.172202 0.033646
vt 0.885068 0.023246
vt 0.225883 0.037364
vt 0.228575 0.037501
vt 0.891930 0.023223
vt 0.172202 0.033646
vt 0.586201 0.028669
vt 0.582962 0.028682
vt 0.172202 0.033646
vt 0.580963 0.024267
vt 0.125265 0.130700
vt 0.128359 0.129733
vt 0.587832 0.024244
vt 0.172202 0.033646
vt 0.669790 0.028561
vt 0.667365 0.028568
vt 0.172202 0.033646
vt 0.664571 0.023987
vt 0.173464 0.145017
vt 0.173268 0.145111
vt 0.671596 0.023963
vt 0.172202 0.033646
vt 0.763872 0.028228
vt 0.761143 0.028236
vt 0.172202 0.033646
vt 0.759190 0.023669
vt 0.225919 0.110112
vt 0.223805 0.110214
vt 0.766073 0.023646
vt 0.172202 0.033646
vt 0.225710 0.457583
vt 0.582991 0.527922
vt 0.174745 0.432355
vt 0.584414 0.522971
vt 0.587637 0.522950
vt 0.590347 0.525426
vt 0.174723 0.436877
vt 0.589875 0.527891
vt 0.667772 0.527541
vt 0.174474 0.488047
vt 0.666617 0.525225
vt 0.668825 0.522591
vt 0.671236 0.522558
vt 0.673419 0.525165
vt 0.174474 0.487898
vt 0.672272 0.527526
vt 0.174815 0.417946
vt 0.768401 0.527325
vt 0.122369 0.423046
vt 0.761601 0.527339
vt 0.174791 0.422894
vt 0.752394 0.523787
vt 0.761159 0.522135
vt 0.764816 0.522264
vt 0.416429 0.523821
vt 0.419652 0.523805
vt 0.175260 0.326355
vt 0.421627 0.528649
vt 0.228614 0.302646
vt 0.229727 0.301891
vt 0.414750 0.528680
vt 0.175282 0.321838
vt 0.175531 0.272047
vt 0.334070 0.529043
vt 0.175540 0.268839
vt 0.973306 0.526897
vt 0.887712 0.522238
vt 0.890930 0.522233
vt 0.175256 0.327302
vt 0.892966 0.527065
vt 0.133785 0.304079
vt 0.130572 0.305591
vt 0.886117 0.527079
vt 0.175231 0.332285
vt 0.172202 0.033646
vt 0.416715 0.024819
vt 0.172202 0.033646
vt 0.414219 0.024827
vt 0.243617 0.031026
vt 0.172202 0.033646
vt 0.889746 0.023231
vt 0.172202 0.033646
vt 0.887250 0.023239
vt 0.486462 0.031585
vt 0.172202 0.033646
vt 0.585649 0.024252
vt 0.172202 0.033646
vt 0.583153 0.024260
vt 0.310201 0.083479
vt 0.172202 0.033646
vt 0.669401 0.023970
vt 0.172202 0.033646
vt 0.666774 0.023979
vt 0.369044 0.104684
vt 0.172202 0.033646
vt 0.763897 0.023653
vt 0.172202 0.033646
vt 0.761360 0.023662
vt 0.440370 0.076774
vt 0.587687 0.527901
vt 0.174730 0.435440
vt 0.585186 0.527913
vt 0.174738 0.433797
vt 0.587686 0.525841
vt 0.670029 0.527531
vt 0.174466 0.489530
vt 0.668724 0.524915
vt 0.671316 0.524911
vt 0.766245 0.527330
vt 0.174807 0.419515
vt 0.763779 0.527335
vt 0.174798 0.421309
vt 0.481264 0.487172
vt 0.175275 0.323275
vt 0.416938 0.528670
vt 0.175267 0.324918
vt 0.419439 0.528659
vt 0.301449 0.392918
vt 0.175239 0.330700
vt 0.888295 0.527075
vt 0.175248 0.328888
vt 0.890786 0.527069
vt 0.433976 0.393984
vn -0.007934 -0.999968 0.001295
vn -0.258727 -0.965950 0.000919
vn -0.258727 -0.965950 -0.000919
vn -0.007933 -0.999968 -0.001295
vn -0.707110 -0.707103 0.000969
vn -0.866031 -0.499989 0.000978
vn -0.866034 -0.499984 -0.000978
vn -0.707110 -0.707103 -0.000969
vn -0.999991 -0.004014 0.001304
vn -0.999991 -0.004014 -0.001295
vn -0.008011 -0.004012 0.999960
vn -0.005978 -0.499904 0.866060
vn 0.000000 -0.500000 0.866026
vn -0.000000 -0.004291 0.999991
vn -0.005978 -0.866060 0.499904
vn 0.000000 -0.866026 0.500000
vn 0.000000 -0.999999 0.001305
vn -0.866727 -0.002958 0.498774
vn -0.866817 0.003098 0.498617
vn -0.999991 0.004044 0.001298
vn -0.708228 -0.002932 0.705978
vn -0.708246 0.003057 0.705959
vn -0.259305 -0.002816 0.965791
vn -0.008071 0.003603 0.999961
vn -0.259299 0.002896 0.965793
vn 0.999984 -0.005444 0.001352
vn 0.965950 -0.258727 0.000920
vn 0.965950 -0.258727 -0.000919
vn 0.999984 -0.005443 -0.001344
vn 0.707106 -0.707107 0.000969
vn 0.500007 -0.866021 0.000978
vn 0.499996 -0.866027 -0.000978
vn 0.707106 -0.707107 -0.000969
vn 0.007935 -0.999968 0.001294
vn 0.007934 -0.999968 -0.001294
vn 0.006707 -0.004559 0.999967
vn 0.265114 -0.004112 0.964208
vn 0.477278 0.002820 0.878748
vn 0.005518 0.002590 0.999982
vn 0.716141 -0.003823 0.697945
vn 0.868768 -0.003746 0.495205
vn 0.862439 0.002815 0.506153
vn 0.999992 0.003724 0.001343
vn -0.965673 0.259762 0.000393
vn -0.965674 0.259754 -0.001450
vn -0.999991 0.004023 -0.001300
vn -0.704836 0.709370 -0.000484
vn -0.704836 0.709370 -0.000478
vn -0.704853 0.709349 -0.002407
vn -0.704853 0.709349 -0.002409
vn -0.253556 0.967320 -0.001033
vn -0.001919 0.999998 0.000618
vn -0.001986 0.999994 -0.002757
vn -0.253596 0.967306 -0.002865
vn 0.007527 0.859833 0.510520
vn 0.014221 0.848060 0.529709
vn 0.008766 0.999961 0.000674
vn 0.005639 0.723143 0.690675
vn 0.012581 0.725365 0.688250
vn -0.003926 0.266260 0.963893
vn 0.000650 0.002520 0.999997
vn 0.003797 0.268077 0.963390
vn 0.160721 0.986999 0.001696
vn 0.160193 0.987084 -0.001759
vn 0.008689 0.999959 -0.002691
vn 0.310496 0.950573 0.001693
vn 0.310019 0.950729 -0.001754
vn 0.450165 0.892945 0.000812
vn 0.450197 0.892926 -0.002647
vn 0.378327 0.762073 0.525465
vn 0.384466 0.765563 0.515849
vn 0.456408 0.889770 0.000769
vn 0.325447 0.656561 0.680450
vn 0.228816 0.450155 0.863136
vn 0.122671 0.246610 0.961320
vn 0.742014 0.670384 -0.000261
vn 0.742202 0.670172 -0.002451
vn 0.456464 0.889738 -0.002692
vn 0.933248 0.359234 0.000375
vn 0.933354 0.358952 -0.001820
vn 0.999992 0.003709 -0.001340
vn -0.965997 0.002835 -0.258539
vn -0.965999 -0.002847 -0.258532
vn -0.707092 0.003009 -0.707116
vn -0.707092 0.002996 -0.707116
vn -0.707095 -0.002999 -0.707112
vn -0.707095 -0.002999 -0.707112
vn -0.258541 0.002847 -0.965996
vn -0.007968 0.003529 -0.999962
vn -0.007960 -0.004025 -0.999960
vn -0.258539 -0.002847 -0.965997
vn -0.007217 0.262200 -0.964987
vn 0.000436 0.264004 -0.964521
vn 0.000666 0.002578 -0.999997
vn -0.003788 0.718469 -0.695548
vn -0.003530 0.857230 -0.514922
vn 0.003414 0.845948 -0.533255
vn 0.003424 0.720742 -0.693195
vn 0.124254 0.243725 -0.961852
vn 0.231663 0.444955 -0.865071
vn 0.005468 0.002574 -0.999982
vn 0.330887 0.651041 -0.683125
vn 0.385406 0.757231 -0.527318
vn 0.391385 0.760538 -0.518073
vn 0.475952 0.002683 -0.879467
vn 0.263777 -0.004198 -0.964575
vn 0.006627 -0.004578 -0.999968
vn 0.861758 0.002670 -0.507312
vn 0.867680 -0.003873 -0.497108
vn 0.714618 -0.003955 -0.699504
vn 0.000000 -0.999999 -0.001305
vn 0.000000 -0.965926 -0.258817
vn 0.005621 -0.966061 -0.258253
vn -0.000000 -0.707106 -0.707107
vn -0.000000 -0.707106 -0.707107
vn 0.005922 -0.707093 -0.707095
vn 0.005922 -0.707093 -0.707095
vn 0.000000 -0.258814 -0.965927
vn 0.000000 -0.004306 -0.999991
vn 0.005623 -0.258250 -0.966062
vn 0.005975 -0.866078 0.499873
vn 0.005622 -0.258255 0.966060
vn 0.005921 -0.707094 0.707095
vn -0.005625 -0.966061 -0.258251
vn -0.005923 -0.707094 -0.707095
vn -0.005923 -0.707094 -0.707095
vn -0.005626 -0.258248 -0.966062
vn -0.946107 -0.228990 0.229009
vn -0.707842 -0.499465 0.499493
vn -0.499465 -0.707842 0.499495
vn -0.228994 -0.946105 0.229011
vn -0.499471 -0.499471 0.707854
vn -0.229000 -0.228999 0.946107
vn 0.228912 -0.946106 0.229092
vn 0.499335 -0.707852 0.499610
vn 0.707788 -0.499443 0.499592
vn 0.946125 -0.228926 0.228998
vn 0.499316 -0.499523 0.707927
vn 0.228960 -0.229068 0.946100
vn -0.218463 0.949526 0.225111
vn -0.495047 0.713060 0.496461
vn -0.706475 0.504448 0.496412
vn -0.946137 0.230873 0.226987
vn -0.497254 0.503328 0.706682
vn -0.228556 0.231435 0.945622
vn 0.307501 0.832020 0.461721
vn 0.108422 0.880321 0.461823
vn 0.183285 0.755985 0.628406
vn 0.083175 0.342407 0.935863
vn 0.865409 0.292757 0.406646
vn 0.648637 0.643845 0.405874
vn 0.536553 0.331663 0.775957
vn -0.229210 0.228728 -0.946122
vn -0.499429 0.498320 -0.708695
vn -0.707601 0.499092 -0.500207
vn -0.946051 0.228692 -0.229538
vn -0.499021 0.707377 -0.500595
vn -0.228244 0.946013 -0.230138
vn 0.085939 0.339578 -0.936644
vn 0.186153 0.752783 -0.631399
vn 0.108067 0.879864 -0.462776
vn 0.314198 0.830036 -0.460782
vn 0.864306 0.288068 -0.412301
vn 0.534439 0.325672 -0.779944
vn 0.650804 0.637198 -0.412834
vn -0.229005 -0.946104 -0.229007
vn -0.499482 -0.707842 -0.499477
vn -0.707844 -0.499478 -0.499478
vn -0.946105 -0.229005 -0.229002
vn -0.499482 -0.499481 -0.707840
vn -0.229013 -0.229004 -0.946103
vn 0.946121 -0.228954 -0.228989
vn 0.707794 -0.499467 -0.499560
vn 0.499369 -0.707855 -0.499572
vn 0.228930 -0.946103 -0.229085
vn 0.499331 -0.499545 -0.707901
vn 0.228974 -0.229086 -0.946092
s 1
g Wall_HP
usemtl initialShadingGroup
f 3/1/1 2/38/2 77/105/3 85/30/4
f 2/38/5 1/37/6 78/106/7 77/105/8
f 1/37/6 9/33/9 79/9/10 78/106/7
f 6/3/11 5/41/12 11/45/13 10/19/14
f 5/41/12 4/39/15 12/47/16 11/45/13
f 4/40/15 3/1/1 13/2/17 12/48/16
f 9/33/9 8/43/18 26/60/19 25/34/20
f 8/44/18 7/42/21 27/61/22 26/59/19
f 7/42/23 6/3/11 28/6/24 27/61/25
f 16/5/26 15/50/27 90/117/28 98/15/29
f 15/50/30 14/49/31 91/118/32 90/117/33
f 14/49/31 22/4/34 92/17/35 91/118/32
f 19/20/36 18/53/37 47/78/38 46/7/39
f 18/53/40 17/51/41 48/80/42 47/78/38
f 17/52/41 16/5/26 49/8/43 48/79/42
f 25/34/20 24/58/44 53/84/45 52/35/46
f 24/58/47 23/57/48 54/85/49 53/84/50
f 23/57/51 31/22/52 55/10/53 54/85/54
f 31/22/52 30/63/55 35/68/56 34/23/57
f 30/64/55 29/62/58 36/69/59 35/67/56
f 29/62/60 28/6/24 37/21/61 36/69/62
f 34/23/57 33/66/63 62/92/64 61/11/65
f 33/66/63 32/65/66 63/93/67 62/92/64
f 32/65/66 40/24/68 64/12/69 63/93/67
f 40/24/68 39/71/70 44/76/71 43/25/72
f 39/72/70 38/70/73 45/77/74 44/75/71
f 38/70/75 37/21/61 46/7/39 45/77/74
f 43/25/72 42/74/76 74/103/77 73/13/78
f 42/74/76 41/73/79 75/104/80 74/103/77
f 41/73/79 49/8/43 76/14/81 75/104/80
f 52/35/46 51/82/82 80/108/83 79/9/10
f 51/83/84 50/81/85 81/109/86 80/107/87
f 50/81/88 58/26/89 82/36/90 81/109/91
f 58/26/89 57/87/92 59/90/93 67/27/94
f 57/88/95 56/86/96 60/91/97 59/89/98
f 56/86/96 55/10/53 61/11/65 60/91/97
f 67/27/94 66/95/99 71/101/100 70/28/101
f 66/96/102 65/94/103 72/102/104 71/100/100
f 65/94/103 64/12/69 73/13/78 72/102/104
f 70/28/101 69/99/105 96/122/106 95/18/107
f 69/99/105 68/97/108 97/124/109 96/122/110
f 68/98/108 76/14/81 98/15/29 97/123/109
f 89/16/111 88/116/112 93/120/113 92/17/35
f 88/115/114 87/113/115 94/121/116 93/119/117
f 87/113/118 86/29/119 95/18/107 94/121/120
f 6/3/11 10/19/14 37/21/61 28/6/24
f 10/19/14 19/20/36 46/7/39 37/21/61
f 31/22/52 34/23/57 61/11/65 55/10/53
f 40/24/68 43/25/72 73/13/78 64/12/69
f 58/26/89 67/27/94 86/29/119 82/36/90
f 67/27/94 70/28/101 95/18/107 86/29/119
f 85/30/4 89/31/111 13/2/17 3/1/1
f 89/16/111 92/17/35 22/4/34 13/32/17
f 16/5/26 98/15/29 76/14/81 49/8/43
f 79/9/10 9/33/9 25/34/20 52/35/46
f 12/46/16 13/32/17 22/4/34 21/55/121
f 10/19/14 11/45/13 20/54/122 19/20/36
f 11/45/13 12/47/16 21/56/121 20/54/123
f 85/30/4 84/111/124 88/114/112 89/31/111
f 84/112/125 83/110/126 87/113/115 88/115/114
f 83/110/127 82/36/90 86/29/119 87/113/118
f 8/43/18 9/33/9 1/37/6 99/126/128
f 99/126/129 1/37/6 2/38/5 100/128/130
f 2/38/2 3/1/1 4/40/15 100/128/131
f 100/127/130 4/39/15 5/41/12 101/129/132
f 5/41/12 6/3/11 7/42/23 101/129/133
f 101/129/132 7/42/21 8/44/18 99/125/129
f 99/125/129 100/127/130 101/129/132
f 21/55/121 22/4/34 14/49/31 102/131/134
f 102/131/135 14/49/31 15/50/30 103/133/136
f 15/50/27 16/5/26 17/52/41 103/133/137
f 103/132/136 17/51/41 18/53/40 104/134/138
f 18/53/37 19/20/36 20/54/122 104/134/139
f 104/134/138 20/54/123 21/56/121 102/130/135
f 102/130/135 103/132/136 104/134/138
f 30/63/55 31/22/52 23/57/51 105/136/140
f 105/136/141 23/57/48 24/58/47 106/138/142
f 24/58/44 25/34/20 26/60/19 106/138/143
f 106/137/142 26/59/19 27/61/22 107/139/144
f 27/61/25 28/6/24 29/62/60 107/139/145
f 107/139/144 29/62/58 30/64/55 105/135/141
f 105/135/141 106/137/142 107/139/144
f 39/71/70 40/24/68 32/65/66 108/141/146
f 108/141/146 32/65/66 33/66/63 109/143/147
f 33/66/63 34/23/57 35/68/56 109/143/147
f 109/142/147 35/67/56 36/69/59 110/144/148
f 36/69/62 37/21/61 38/70/75 110/144/149
f 110/144/148 38/70/73 39/72/70 108/140/146
f 108/140/146 109/142/147 110/144/148
f 48/79/42 49/8/43 41/73/79 111/146/150
f 111/146/150 41/73/79 42/74/76 112/148/151
f 42/74/76 43/25/72 44/76/71 112/148/151
f 112/147/151 44/75/71 45/77/74 113/149/152
f 45/77/74 46/7/39 47/78/38 113/149/152
f 113/149/152 47/78/38 48/80/42 111/145/150
f 111/145/150 112/147/151 113/149/152
f 57/87/92 58/26/89 50/81/88 114/151/153
f 114/151/154 50/81/85 51/83/84 115/153/155
f 51/82/82 52/35/46 53/84/45 115/152/156
f 115/152/155 53/84/50 54/85/49 116/154/157
f 54/85/54 55/10/53 56/86/96 116/154/158
f 116/154/157 56/86/96 57/88/95 114/150/154
f 114/150/154 115/152/155 116/154/157
f 66/95/99 67/27/94 59/90/93 117/156/159
f 117/155/160 59/89/98 60/91/97 118/157/161
f 60/91/97 61/11/65 62/92/64 118/157/161
f 118/157/161 62/92/64 63/93/67 119/158/162
f 63/93/67 64/12/69 65/94/103 119/158/162
f 119/158/162 65/94/103 66/96/102 117/155/160
f 117/155/160 118/157/161 119/158/162
f 75/104/80 76/14/81 68/98/108 120/159/163
f 120/160/163 68/97/108 69/99/105 121/162/164
f 69/99/105 70/28/101 71/101/100 121/162/164
f 121/161/164 71/100/100 72/102/104 122/163/165
f 72/102/104 73/13/78 74/103/77 122/163/165
f 122/163/165 74/103/77 75/104/80 120/159/163
f 120/159/163 121/161/164 122/163/165
f 84/111/124 85/30/4 77/105/3 123/165/166
f 123/165/167 77/105/8 78/106/7 124/167/168
f 78/106/7 79/9/10 80/108/83 124/167/169
f 124/166/168 80/107/87 81/109/86 125/168/170
f 81/109/91 82/36/90 83/110/127 125/168/171
f 125/168/170 83/110/126 84/112/125 123/164/167
f 123/164/167 124/166/168 125/168/170
f 97/123/109 98/15/29 90/117/28 126/170/172
f 126/170/173 90/117/33 91/118/32 127/172/174
f 91/118/32 92/17/35 93/120/113 127/172/175
f 127/171/174 93/119/117 94/121/116 128/173/176
f 94/121/120 95/18/107 96/122/106 128/173/177
f 128/173/176 96/122/110 97/124/109 126/169/173
f 126/169/173 127/171/174 128/173/176
